<svg fill="none" height="83" viewBox="0 0 80 83" width="80" xmlns="http://www.w3.org/2000/svg"><path d="m74.1385 55.218-21.1052-48.06538c-.2961-.67712-.8512-1.20987-1.5433-1.48114-.6921-.27126-1.4645-.25883-2.1473.03456l-42.13283 18.18076c-.68076.2959-1.21602.8467-1.48921 1.5322-.27319.6856-.26219 1.4505.03063 2.128l21.08301 48.0655c.2985.6751.8537 1.206 1.5449 1.4769.6913.2709 1.4625.26 2.1457-.0303l42.166-18.1699c.6816-.2978 1.2164-.8513 1.4876-1.5393.2713-.6879.2569-1.4544-.04-2.1319zm-9.0167-7.5286c0-.0549 0-.1096 0-.1644s-.0111.1095 0 .1644zm-5.5249-12.9095-.7956-1.8192-8.7404-19.9451zm-46.4092-7.8685 16.2765-7.0137-16.2765 7.0137c-.1153.0531-.2262.1155-.3315.1863.0876-.0685.18-.1308.2763-.1863zm2.9394 11.441.3646.8109-4.3204-9.8629zm25.337 20.9752 22.619-9.7314c.1196-.0447.2315-.1074.3315-.1863-.1.0789-.2119.1416-.3315.1863zm22.9615-10.0164c.0777-.0529.1483-.1155.21-.1862-.0617.0707-.1323.1333-.21.1862zm.5967-.8c-.0359.0862-.0765.1703-.1215.2521.0437-.0675.0842-.137.1215-.2081zm-.1547.3179c-.0526.0812-.1117.1582-.1768.2301.0633-.0579.1224-.1201.1768-.1863zm.2542-.7891c.0054-.0693.0054-.1388 0-.2081.008.0837.008.1682 0 .2519zm-.0663.3507c.0063-.073.0063-.1463 0-.2191.0091.0874.0091.1755 0 .2629z" fill="#fff"/><path d="m29.4197 82.7795c-1.6262-.0001-3.2169-.471-4.5772-1.3547-1.3602-.8839-2.4307-2.1422-3.0804-3.6206l-21.071907-48.0655c-.880554-2.0099-.920057-4.2843-.109822-6.323.810229-2.0387 2.403839-3.6747 4.430289-4.5482l42.15494-18.180694c2.0267-.8744 4.3205-.915447 6.3777-.114131 2.0571.801315 3.7097 2.379505 4.5948 4.388075l21.0719 48.07635c.8806 2.0099.92 4.2843.1099 6.3231-.8103 2.0386-2.404 3.6747-4.4304 4.5481l-42.166 18.1808c-1.0422.4514-2.1665.6862-3.3038.6904zm-10.3979-38.7176 11.7902 26.9039 37.1824-16.0328-.4641-1.0959c-.4003.2854-.8299.5278-1.2818.7233l-22.5857 9.7972c-.6653.2872-1.3812.4416-2.1066.4544-.7255.0127-1.4463-.1164-2.1216-.3799-.6751-.2637-1.2913-.6566-1.8134-1.1563-.522-.4997-.9397-1.0966-1.2291-1.7565-.2896-.6598-.4452-1.3697-.458-2.0892-.0129-.7195.1173-1.4345.383-2.1041.2658-.6696.6619-1.2808 1.1658-1.7985s1.1057-.932 1.771-1.2191l20.7736-8.9643c.5136-1.1725 1.4244-2.1301 2.5747-2.7068l-1.1824-2.696c-1.3205.4681-2.7713.4205-4.0578-.1331-1.2865-.5535-2.3127-1.5715-2.8704-2.8477l-9.547-21.7532c-.2-.4622-.3375-.9486-.4089-1.4466l-9.9448 4.2849c.4719 1.3097.424 2.7484-.1341 4.0244-.5582 1.276-1.5847 2.2936-2.8715 2.8467l-12.895 5.5782 2.5083 5.6657.3536.8109c.5701 1.2789.6256 2.7256.1551 4.0438-.4704 1.3181-1.4311 2.4081-2.6855 3.0466z" fill="#fff"/><path d="m49.3758 5.70634-42.16593 18.18066c-.68076.2961-1.21602.8468-1.48921 1.5323s-.26219 1.4505.03063 2.128l21.08301 48.0655c.2985.6751.8537 1.206 1.5449 1.4769.6913.2709 1.4625.26 2.1457-.0303l42.166-18.1698c.6816-.298 1.2164-.8514 1.4876-1.5394.2713-.688.2569-1.4543-.04-2.1319l-21.1052-48.06539c-.2962-.66891-.8458-1.19549-1.53-1.46613-.6843-.27062-1.4484-.26361-2.1275.01956zm15.6134 41.46826c.1997.4409.2166.9419.0471 1.395s-.5118.8219-.9532 1.0269l-34.4974 14.8601c-.2241.096-.4653.1472-.7093.1508-.2442.0035-.4866-.0409-.7134-.1305-.2269-.0896-.4337-.2226-.6086-.3916-.1749-.1689-.3144-.3704-.4107-.593l-14.9945-34.1478c-.1967-.4491-.2059-.9573-.0258-1.4132.1802-.4559.535-.8226.987-1.0197l34.4532-14.8601c.453-.195.9654-.2041 1.425-.0255.4597.1787.8294.5307 1.0281.9789z" fill="#fff"/><path d="m29.4089 77.5743c-.6015.0014-1.1902-.1721-1.693-.4995-.5028-.3272-.8977-.7937-1.1357-1.3416l-21.06094-48.0764c-.15835-.3691-.23996-.766-.23996-1.1672 0-.401.08161-.7979.23996-1.167.14586-.375.36561-.7174.64641-1.0071.28079-.2898.61699-.5212.98896-.6806l42.11077-18.15879c.3712-.16127.7711-.2481 1.1763-.25544.4052-.00735.808.06491 1.1849.21262.3769.14772.7207.36794 1.0115.64802.2907.28007.5227.61444.6825.98383l21.072 48.04356c.1556.3717.2358.7702.2358 1.1725 0 .4025-.0802.801-.2358 1.1727-.1359.3776-.3468.7244-.6201 1.0199-.2733.2954-.6035.5337-.971.7006l-42.1661 18.1479c-.3881.1631-.8049.2488-1.2265.252zm21.0831-71.82422c-.3464-.00176-.689.06921-1.0056.20822l-42.16602 18.1478c-.6124.2649-1.09434.7591-1.34068 1.3751-.24633.6159-.23708 1.3034.02575 1.9126l21.08305 48.1202c.267.6074.7654 1.0854 1.3865 1.3297.621.2443 1.3142.2351 1.9284-.0256l42.1771-18.1807c.6085-.2691 1.0859-.7644 1.3299-1.3793.2438-.6149.2344-1.3002-.0261-1.9083l-21.072-48.0874c-.1959-.44898-.52-.83132-.9323-1.10001-.4124-.26869-.8948-.412-1.388-.41231zm-21.6356 59.17772c-.2687-.0034-.5346-.0555-.7845-.1534-.259-.0961-.496-.2426-.6971-.4309-.2011-.1881-.3623-.4143-.4742-.665l-14.9835-34.2245c-.1094-.2566-.1658-.5323-.1658-.8109s.0564-.5543.1658-.8109c.2056-.5154.6004-.9344 1.1049-1.1727l34.4865-14.8492c.5221-.2071 1.1041-.2091 1.6277-.0055.5235.2036.949.5975 1.19 1.1013l14.9172 34.2136c.2091.5207.2091 1.1011 0 1.6219-.098.2563-.2462.4908-.4357.6901-.1897.1993-.4171.3596-.6693.4715l-34.4422 14.7507c-.2641.1352-.554.2136-.8509.2301zm19.4477-52.7448c-.2168.0013-.431.0461-.6299.1314l-34.4201 14.8492c-.382.1704-.6829.4806-.8398.8658-.0821.1906-.1243.3956-.1243.6028s.0422.4122.1243.6026l14.9836 34.1478c.1668.381.4756.6833.8618.8438.3895.1584.8261.1584 1.2155 0l34.4422-14.9149c.382-.1704.6829-.4807.8398-.8658.1597-.3862.1597-.8193 0-1.2055l-15.0387-34.0929c-.0816-.1899-.2009-.3616-.351-.5047-.1499-.1431-.3275-.2547-.522-.3282-.1724-.0717-.3552-.1161-.5414-.1314z" fill="#3d3dff"/><path d="m40.4142 24.7307c2.6038.4478 4.9895 1.7251 6.7956 3.6384 2.9755 2.8982 6.9679 4.5401 11.1382 4.5808h.4089l-8.7403-19.9452c-.1988-.4482-.5685-.8002-1.0282-.9789-.4597-.1786-.972-.1695-1.425.0255l-16.3647 7.0684c.4188.5705.8845 1.1057 1.3923 1.6 2.1453 2.0819 4.8702 3.4788 7.8232 4.011z" fill="#ffd0ee"/><path d="m58.7572 33.2347h-.4199c-4.2436-.0376-8.3058-1.7119-11.3261-4.6684-1.7632-1.8673-4.0896-3.117-6.6299-3.5616-3.0097-.5397-5.788-1.9593-7.978-4.0767-.5284-.5128-1.0195-1.0621-1.4695-1.6438-.0184-.0357-.028-.0752-.028-.1151 0-.0401.0096-.0795.028-.1151.0089-.041.0276-.0793.0545-.1118.0269-.0324.0612-.058.1002-.0745l16.42-7.0575c.522-.2071 1.1041-.2091 1.6276-.0055s.9491.5975 1.19 1.1014l8.6852 19.967c.019.0413.0287.0862.0287.1315 0 .0454-.0097.0903-.0287.1315-.0308.0361-.0702.064-.1145.0811-.0444.0172-.0924.0233-.1396.0175zm-18.2875-8.767c2.6616.4561 5.0991 1.765 6.9393 3.7259 2.922 2.8399 6.8374 4.4497 10.9283 4.4932l-8.6189-19.5396c-.0815-.19-.2009-.3616-.3508-.5047-.15-.1431-.3277-.2548-.5222-.3282-.3894-.1583-.8259-.1583-1.2154 0l-16 6.926c.3604.4501.7477.8783 1.1601 1.2822 2.1169 2.0583 4.8143 3.4303 7.7349 3.9342z" fill="#3d3dff"/><path d="m57.7299 46.7359c-1.105-.4165-2.0774-.8877-3.0828-1.3919-.2398 1.2406-.7745 2.4066-1.5595 3.4013-.7849.9946-1.7978 1.7893-2.9544 2.3182-1.1566.5288-2.4237.7764-3.6961.7225-1.2725-.054-2.5136-.408-3.6206-1.0328-1.1068-.6248-2.0475-1.5024-2.7441-2.5598-.6966-1.0575-1.1288-2.2644-1.261-3.5208-.1322-1.2563.0396-2.5258.5011-3.703.4614-1.1774 1.1992-2.2286 2.1522-3.0666-1.5747-.7652-3.2169-1.3852-4.9061-1.852-5.3607-1.3296-10.995-1.0898-16.2211.6904-1.4341.4543-2.8399.9923-4.2101 1.6109l7.0719 16.1862c2.3725-.2526 4.7693-.164 7.1161.263 3.8488.7475 7.4671 2.3803 10.5636 4.7671l23.2046-9.9725c.2338-.1053.4437-.2568.6166-.4452.1729-.1883.3051-.4097.3889-.6507-2.5191-.2733-4.9923-.8664-7.3592-1.7643z" fill="#00ffac"/><path d="m40.8786 59.8866-.1215-.0987c-3.0678-2.3618-6.6522-3.976-10.4642-4.7122-2.3375-.442-4.728-.5381-7.094-.285h-.1989l-7.2266-16.5369.2431-.1205c1.3817-.631 2.7984-1.1835 4.2432-1.6548 5.2707-1.8058 10.9584-2.0457 16.3648-.6904 1.7067.4724 3.3671 1.0959 4.9613 1.863l.3757.1863-.3094.2739c-.9231.8081-1.6383 1.8229-2.0863 2.9603-.448 1.1373-.6157 2.3643-.4893 3.579.1265 1.2146.5434 2.3818 1.2162 3.4044.6729 1.0226 1.5821 1.8711 2.6521 2.475 1.0702.6039 2.2702.9457 3.5002.9972 1.2301.0513 2.4548-.1892 3.5722-.7018 1.1175-.5126 2.0955-1.2822 2.8526-2.2451s1.2716-2.0911 1.5006-3.2909l.0663-.3507.3314.1644c1.105.548 2.0774.9863 3.0609 1.3698 2.3239.9073 4.7568 1.5114 7.2376 1.7973h.3426l-.1216.3288c-.09.2671-.2346.513-.4247.7224-.1901.2093-.4218.3775-.6803.494zm-15.0056-5.7643c1.5089 0 3.0145.1394 4.4973.4164 3.8482.7342 7.4698 2.3518 10.5746 4.7232l22.9725-9.8629c.2856-.1253.5276-.331.6962-.5919-2.3955-.3086-4.7441-.9048-6.9946-1.7752-.895-.3507-1.8011-.7562-2.7846-1.2384-.2957 1.2409-.8784 2.3964-1.7022 3.3755-.8237.9789-1.8658 1.7543-3.0438 2.265-1.178.5106-2.4597.7424-3.7437.6771s-2.5349-.426-3.6541-1.0535c-1.1191-.6275-2.0757-1.5047-2.7941-2.5622-.7184-1.0574-1.1788-2.2661-1.345-3.5305-.1661-1.2644-.0333-2.5498.3878-3.7544.4212-1.2048 1.1192-2.2958 2.0388-3.1868-1.4539-.6981-2.9661-1.2701-4.5194-1.7096-5.3058-1.3217-10.8849-1.0818-16.0553.6904-1.3391.4339-2.6525.9425-3.9338 1.5233l6.9172 15.715c.8287-.0767 1.6575-.1205 2.4862-.1205z" fill="#3d3dff"/><path d="m30.3259 54.7908c-2.3511-.4244-4.7517-.5094-7.1272-.2519l3.9337 8.9533c.0963.2226.2358.4241.4108.593.1749.169.3817.302.6085.3916s.4693.134.7134.1305c.2442-.0036.4852-.0548.7094-.1508l11.3039-4.8876c-3.0923-2.3892-6.7066-4.0258-10.5525-4.7781z" fill="#00ffac"/><path d="m28.8457 64.8838c-.2687-.0034-.5345-.0554-.7846-.1534-.2588-.0962-.4959-.2427-.697-.4308-.2012-.1881-.3623-.4143-.4743-.665l-4.0773-9.2932h.3757c2.3948-.2557 4.8144-.1635 7.1824.274 3.8999.7452 7.5657 2.3978 10.6962 4.8219l.3757.274-11.746 4.9424c-.2641.1353-.554.2137-.8508.2301zm-5.2265-10.093 3.7789 8.6026c.167.381.4757.6833.8619.8439.3895.1583.8261.1583 1.2155 0l10.8841-4.7014c-2.9863-2.1973-6.4353-3.696-10.0885-4.3836-2.1893-.4283-4.4285-.55-6.6519-.3615z" fill="#3d3dff"/><path d="m64.989 47.1746-6.2319-14.2466h-.4089c-4.1705-.0405-8.1627-1.6824-11.1382-4.5808-1.8062-1.9131-4.1918-3.1904-6.7956-3.6383-2.9532-.5321-5.6779-1.9291-7.8233-4.0109-.5077-.4944-.9734-1.0295-1.3923-1.6l-18.0663 7.8137c-.2259.0955-.4304.2343-.6021.4083-.1715.1741-.3069.3799-.3982.6059-.0914.2259-.1369.4676-.134.7109.0029.2435.0541.484.1508.7077l3.9779 9.0081c1.3694-.6298 2.7752-1.1787 4.21-1.6438 5.2261-1.7801 10.8604-2.02 16.221-.6904 1.6892.4668 3.3315 1.0868 4.9062 1.8521.4001-.3505.833-.6625 1.2928-.9316 1.3295-.7655 2.8529-1.1357 4.3886-1.066 1.5358.0695 3.0188.5759 4.2723 1.4586 1.2535.8826 2.2243 2.1044 2.7968 3.5194.5726 1.4149.7224 2.9635.4319 4.4607 1.0055.504 2.0221.9752 3.0829 1.3917 2.3471.9085 4.8015 1.5161 7.3038 1.8083.1538-.4357.1381-.9124-.0442-1.337zm-42.7847-15.2218c-.464.2644-.9966.3867-1.5305.3512-.534-.0355-1.0454-.2272-1.4695-.5508-.4242-.3237-.7422-.7647-.9138-1.2675-.1714-.5028-.1889-1.0446-.05-1.5572.1388-.5126.4277-.9728.8302-1.3226.4026-.3499.9005-.5736 1.4311-.6427.5306-.0693 1.07.019 1.55.2536.48.2347.8791.6052 1.147 1.0646.1796.3054.2964.6431.3437.9935.0472.3503.0239.7066-.0687 1.048-.0924.3414-.2522.6613-.4701.941-.218.2798-.4896.5138-.7994.6889z" fill="#ffff58"/><path d="m65.0338 48.8184c-2.5292-.2893-5.01-.9008-7.3813-1.8192-.9835-.3945-2.0001-.8438-3.1051-1.3919-.0527-.0303-.0947-.0761-.1203-.1309-.0258-.0549-.0338-.1163-.0234-.1759.3119-1.5778.1158-3.213-.5603-4.6744-.6762-1.4614-1.7982-2.675-3.2076-3.4697-1.4094-.7945-3.035-1.1299-4.6469-.9585-1.612.1714-3.129.8408-4.3365 1.9137-.0463.0292-.1.0447-.1547.0447-.0549 0-.1086-.0155-.1547-.0447-1.5692-.746-3.204-1.3477-4.884-1.7973-5.3058-1.3217-10.8849-1.0818-16.0554.6904-1.4238.4612-2.8187 1.0065-4.1768 1.6329-.0326.0164-.0685.0249-.1049.0249-.0366 0-.0725-.0085-.1051-.0249-.0357-.0091-.0686-.0268-.0955-.0517-.0271-.0249-.0474-.0561-.0592-.0908l-3.9668-9.041c-.1094-.2566-.1658-.5324-.1658-.811 0-.2785.0564-.5543.1658-.8109.2056-.5154.6004-.9344 1.105-1.1726l18.0664-7.7917c.0573-.0227.1206-.0265.1803-.0107.0598.0158.1127.0502.1512.0983.418.5545.8759 1.0782 1.3701 1.5671 2.1169 2.0583 4.8143 3.4304 7.7349 3.9342 2.6616.4563 5.099 1.7651 6.9393 3.7261 2.9247 2.8488 6.8509 4.4597 10.9503 4.493.2431 0 .5525 0 .652.1754l6.2319 14.2464c.2048.5028.2048 1.0645 0 1.5673-.0232.0444-.058.0821-.1006.1091-.0428.0269-.0918.0421-.1423.0443zm-10.0886-3.6274c1.0166.5041 1.9559.9205 2.8841 1.2821 2.2536.8658 4.6067 1.4511 7.0056 1.7425.0665-.3204.0318-.6533-.0995-.9534l-6.1768-14.0274h-.221c-4.2436-.0376-8.3058-1.712-11.3261-4.6684-1.7632-1.8672-4.0896-3.117-6.6299-3.5617-3.0097-.5395-5.788-1.9593-7.978-4.0766-.4588-.4576-.887-.9444-1.2816-1.4576l-17.8676 7.6932c-.382.1704-.6829.4805-.8398.8657-.0821.1905-.1243.3956-.1243.6027 0 .2072.0422.4123.1243.6027l3.8453 8.7671c1.3017-.5833 2.6332-1.0991 3.989-1.5451 5.2707-1.8058 10.9584-2.0458 16.3648-.6905 1.6489.4526 3.2538 1.0505 4.7956 1.7863.376-.3121.7791-.5907 1.2043-.8329 1.9006-1.0938 4.1615-1.3944 6.2854-.8353 2.1239.5589 3.9371 1.9316 5.0406 3.8162.9706 1.6578 1.3263 3.6 1.0056 5.4904zm-34.0886-12.6027c-.2609-.0004-.5208-.0335-.7734-.0986-.5687-.1515-1.0795-.4664-1.468-.9052-.3886-.4388-.6376-.9818-.7155-1.5607-.078-.5788.0184-1.1676.2772-1.6921.2588-.5246.6684-.9616 1.177-1.2557.6834-.3794 1.49-.4771 2.2454-.2719s1.3992.6969 1.7923 1.3687.504 1.4701.3089 2.2224c-.1952.7523-.6809 1.3983-1.3521 1.7986-.4537.259-.9682.3951-1.4918.3945zm0-5.3699c-.4271.0028-.846.1162-1.2154.3288-.2733.1596-.5119.3718-.7016.6239-.1897.2522-.3269.5393-.4034.8447-.1096.3847-.1209.7906-.033 1.1808.0879.3904.2722.7528.5366 1.0548.2643.302.6002.5341.9775.6752.3773.1413.7839.1872 1.1836.1337.3996-.0536.7794-.2048 1.1054-.4401.3261-.2354.5879-.5475.762-.9082.1741-.3606.255-.7586.2355-1.158-.0197-.3995-.1391-.7878-.3477-1.1301-.2155-.3658-.5236-.6694-.8937-.8808-.3702-.2115-.7897-.3234-1.2168-.3247z" fill="#3d3dff"/><path d="m53.7068 39.8648c-.5274-.9033-1.2289-1.6946-2.0647-2.3289-.8356-.6343-1.7892-1.0991-2.8062-1.3677-1.0168-.2687-2.0771-.336-3.1203-.1982-1.0432.1379-2.0487.4782-2.9593 1.0016-.4597.2691-.8926.581-1.2927.9316-1.135.9973-1.9613 2.2937-2.3828 3.7383s-.4209 2.9784.0017 4.4226c.4227 1.4444 1.2499 2.7401 2.3857 3.7366 1.1357.9965 2.5334 1.6528 4.0304 1.8927 1.4969.2398 3.0319.0534 4.4263-.5377s2.5909-1.5625 3.4506-2.8014 1.3472-2.6944 1.4058-4.1973c.0587-1.5027-.314-2.9912-1.0745-4.2922z" fill="#7892ff"/><path d="m46.7905 52.0621c-1.6833.005-3.3282-.4986-4.7159-1.4436-1.3877-.9451-2.4522-2.2868-3.0521-3.8466-.5997-1.5598-.7065-3.2639-.3058-4.8853.4008-1.6215 1.2897-3.0835 2.549-4.1916.4182-.3589.8695-.6781 1.3479-.9534 1.9006-1.0938 4.1615-1.3944 6.2854-.8354s3.9371 1.9317 5.0407 3.8162c.7294 1.2486 1.1146 2.6656 1.1166 4.1085.0022 1.4429-.3787 2.861-1.1044 4.1117-.7257 1.2506-1.7706 2.2898-3.0296 3.0129-1.2591.7231-2.688 1.1048-4.1428 1.1066zm0-15.8904c-1.3535.0108-2.6805.3738-3.8484 1.0524-1.1679.6787-2.1357 1.6495-2.8067 2.8153-.6711 1.1659-1.022 2.486-1.0176 3.8284.0045 1.3424.3641 2.6602 1.0428 3.8217.4758.93 1.1378 1.7539 1.9456 2.4216.8077.6677 1.7442 1.165 2.7523 1.4615 1.0081.2967 2.0666.3862 3.1108.2634 1.0441-.1228 2.0521-.4554 2.9622-.9777.9101-.5222 1.7034-1.223 2.3313-2.0594.6278-.8365 1.0771-1.7913 1.3204-2.8058.2433-1.0146.2754-2.0676.0945-3.095-.1809-1.0272-.5712-2.0071-1.1469-2.8798-.5051-.8731-1.1806-1.6376-1.9869-2.2491s-1.7272-1.0577-2.7092-1.3125c-.6721-.1908-1.3672-.2903-2.0663-.2959z" fill="#3d3dff"/><path d="m20.845 32.3144c1.4951 0 2.7071-1.202 2.7071-2.6849s-1.212-2.6849-2.7071-2.6849c-1.4952 0-2.7073 1.202-2.7073 2.6849s1.2121 2.6849 2.7073 2.6849z" fill="#00ffac"/><g fill="#3d3dff"><path d="m20.8564 32.5883c-.2611-.0004-.521-.0335-.7735-.0987-.5688-.1513-1.0795-.4663-1.4681-.9051s-.6375-.9818-.7155-1.5607c-.0779-.5788.0185-1.1676.2774-1.6921.2587-.5246.6682-.9615 1.1769-1.2556.395-.2407.841-.3869 1.3028-.4267.4618-.0399.9266.0274 1.3575.1968.4311.1693.8163.4358 1.1253.7786.3091.3427.5332.7521.6549 1.1957s.1374.9092.046 1.36c-.0913.4507-.2874.8741-.5725 1.2366s-.6515.6541-1.0701.8516c-.4185.1976-.8778.2958-1.3411.2867zm0-5.3699c-.4272.0028-.8462.1162-1.2155.3288-.2734.1597-.5119.3718-.7017.6239-.1896.2521-.3268.5393-.4033.8446-.1097.3849-.121.7907-.0331 1.181.0879.3902.2724.7528.5366 1.0547.2644.302.6002.5341.9775.6753.3773.1411.784.1871 1.1836.1336s.7796-.2048 1.1055-.4401c.326-.2354.5878-.5474.7619-.9082.1742-.3607.255-.7587.2355-1.158-.0196-.3995-.139-.7878-.3477-1.13-.2155-.3659-.5236-.6694-.8937-.8809-.3702-.2114-.7896-.3233-1.2167-.3247z"/><path d="m63.0339 58.493-.4005-.887-2.0351-.2466 1.1613-1.6888-.4005-.887-1.6643 2.6274.267.5913z"/><path d="m63.5215 58.2728.738-.3328.2484-4.577-.738.3329z"/><path d="m66.6957 56.8414 1.6644-2.6274-.2671-.5913-3.072-.4907.4005.887 2.0351.2466-1.1613 1.6888z"/></g></svg>